<?xml version="1.0" encoding="UTF-8" standalone="no"?>
<!DOCTYPE svg PUBLIC "-//W3C//DTD SVG 1.1//EN"
 "http://www.w3.org/Graphics/SVG/1.1/DTD/svg11.dtd">
<!-- Generated by graphviz version 9.0.0 (20230911.1827)
 -->
<!-- Title: example Pages: 1 -->
<svg width="340pt" height="314pt"
 viewBox="0.00 0.00 340.38 313.50" xmlns="http://www.w3.org/2000/svg" xmlns:xlink="http://www.w3.org/1999/xlink">
<g id="graph0" class="graph" transform="scale(1 1) rotate(0) translate(4 309.5)">
<title>example</title>
<polygon fill="white" stroke="none" points="-4,4 -4,-309.5 336.38,-309.5 336.38,4 -4,4"/>
<!-- boost Graph -->
<g id="node1" class="node">
<title>boost Graph</title>
<g id="a_node1"><a xlink:href="https://www.boost.org/libs/graph/doc/Graph.html" target="_top" xlink:title="\N">
<polygon fill="none" stroke="black" points="137.88,-269 137.88,-305 207.12,-305 207.12,-269 137.88,-269"/>
<text text-anchor="middle" x="172.5" y="-283.5" font-family="Helvetica,sans-Serif" font-size="10.00">boost Graph</text>
</a>
</g>
</g>
<!-- HalfedgeGraph -->
<g id="node2" class="node">
<title>HalfedgeGraph</title>
<g id="a_node2"><a xlink:href="classHalfedgeGraph.html" target="_top" xlink:title="\N">
<polygon fill="none" stroke="black" points="131.88,-179.5 131.88,-215.5 213.12,-215.5 213.12,-179.5 131.88,-179.5"/>
<text text-anchor="middle" x="172.5" y="-194" font-family="Helvetica,sans-Serif" font-size="10.00">HalfedgeGraph</text>
</a>
</g>
</g>
<!-- HalfedgeGraph&#45;&gt;boost Graph -->
<g id="edge2" class="edge">
<title>HalfedgeGraph&#45;&gt;boost Graph</title>
<path fill="none" stroke="black" d="M172.5,-215.79C172.5,-227.77 172.5,-244 172.5,-257.84"/>
<polygon fill="black" stroke="black" points="172.5,-267.53 168,-257.53 172.5,-263.75 172.5,-257.53 172.5,-257.53 172.5,-257.53 172.5,-263.75 177,-257.53 172.5,-267.53"/>
<text text-anchor="middle" x="190.88" y="-237.2" font-family="Times,serif" font-size="14.00">refines</text>
</g>
<!-- HalfedgeListGraph -->
<g id="node3" class="node">
<title>HalfedgeListGraph</title>
<g id="a_node3"><a xlink:href="classHalfedgeListGraph.html" target="_top" xlink:title="\N">
<polygon fill="none" stroke="black" points="0,-90 0,-126 97,-126 97,-90 0,-90"/>
<text text-anchor="middle" x="48.5" y="-104.5" font-family="Helvetica,sans-Serif" font-size="10.00">HalfedgeListGraph</text>
</a>
</g>
</g>
<!-- HalfedgeListGraph&#45;&gt;HalfedgeGraph -->
<g id="edge7" class="edge">
<title>HalfedgeListGraph&#45;&gt;HalfedgeGraph</title>
<path fill="none" stroke="black" d="M73.3,-126.5C92.05,-139.73 118.01,-158.05 138.67,-172.63"/>
<polygon fill="black" stroke="black" points="146.75,-178.33 135.99,-176.24 143.66,-176.15 138.58,-172.57 138.58,-172.57 138.58,-172.57 143.66,-176.15 141.18,-168.89 146.75,-178.33"/>
<text text-anchor="middle" x="140.88" y="-147.7" font-family="Times,serif" font-size="14.00">refines</text>
</g>
<!-- MutableHalfedgeGraph -->
<g id="node4" class="node">
<title>MutableHalfedgeGraph</title>
<g id="a_node4"><a xlink:href="classMutableHalfedgeGraph.html" target="_top" xlink:title="\N">
<polygon fill="none" stroke="black" points="114.62,-90 114.62,-126 230.38,-126 230.38,-90 114.62,-90"/>
<text text-anchor="middle" x="172.5" y="-104.5" font-family="Helvetica,sans-Serif" font-size="10.00">MutableHalfedgeGraph</text>
</a>
</g>
</g>
<!-- MutableHalfedgeGraph&#45;&gt;HalfedgeGraph -->
<g id="edge1" class="edge">
<title>MutableHalfedgeGraph&#45;&gt;HalfedgeGraph</title>
<path fill="none" stroke="black" d="M172.5,-126.29C172.5,-138.27 172.5,-154.5 172.5,-168.34"/>
<polygon fill="black" stroke="black" points="172.5,-178.03 168,-168.03 172.5,-174.25 172.5,-168.03 172.5,-168.03 172.5,-168.03 172.5,-174.25 177,-168.03 172.5,-178.03"/>
<text text-anchor="middle" x="190.88" y="-147.7" font-family="Times,serif" font-size="14.00">refines</text>
</g>
<!-- FaceGraph -->
<g id="node5" class="node">
<title>FaceGraph</title>
<g id="a_node5"><a xlink:href="classFaceGraph.html" target="_top" xlink:title="\N">
<polygon fill="none" stroke="black" points="248.5,-90 248.5,-126 312.5,-126 312.5,-90 248.5,-90"/>
<text text-anchor="middle" x="280.5" y="-104.5" font-family="Helvetica,sans-Serif" font-size="10.00">FaceGraph</text>
</a>
</g>
</g>
<!-- FaceGraph&#45;&gt;HalfedgeGraph -->
<g id="edge4" class="edge">
<title>FaceGraph&#45;&gt;HalfedgeGraph</title>
<path fill="none" stroke="black" d="M258.9,-126.5C242.72,-139.61 220.36,-157.72 202.45,-172.24"/>
<polygon fill="black" stroke="black" points="195.01,-178.27 199.94,-168.48 197.94,-175.89 202.78,-171.97 202.78,-171.97 202.78,-171.97 197.94,-175.89 205.61,-175.47 195.01,-178.27"/>
<text text-anchor="middle" x="254.88" y="-147.7" font-family="Times,serif" font-size="14.00">refines</text>
</g>
<!-- FaceListGraph -->
<g id="node6" class="node">
<title>FaceListGraph</title>
<g id="a_node6"><a xlink:href="classFaceListGraph.html" target="_top" xlink:title="\N">
<polygon fill="none" stroke="black" points="252.62,-0.5 252.62,-36.5 332.38,-36.5 332.38,-0.5 252.62,-0.5"/>
<text text-anchor="middle" x="292.5" y="-15" font-family="Helvetica,sans-Serif" font-size="10.00">FaceListGraph</text>
</a>
</g>
</g>
<!-- FaceListGraph&#45;&gt;FaceGraph -->
<g id="edge3" class="edge">
<title>FaceListGraph&#45;&gt;FaceGraph</title>
<path fill="none" stroke="black" d="M290.13,-36.79C288.49,-48.77 286.26,-65 284.36,-78.84"/>
<polygon fill="black" stroke="black" points="283.03,-88.54 279.93,-78.02 283.55,-84.8 284.39,-78.63 284.39,-78.63 284.39,-78.63 283.55,-84.8 288.85,-79.25 283.03,-88.54"/>
<text text-anchor="middle" x="306.88" y="-58.2" font-family="Times,serif" font-size="14.00">refines</text>
</g>
<!-- MutableFaceGraph -->
<g id="node7" class="node">
<title>MutableFaceGraph</title>
<g id="a_node7"><a xlink:href="classMutableFaceGraph.html" target="_top" xlink:title="\N">
<polygon fill="none" stroke="black" points="130.25,-0.5 130.25,-36.5 228.75,-36.5 228.75,-0.5 130.25,-0.5"/>
<text text-anchor="middle" x="179.5" y="-15" font-family="Helvetica,sans-Serif" font-size="10.00">MutableFaceGraph</text>
</a>
</g>
</g>
<!-- MutableFaceGraph&#45;&gt;MutableHalfedgeGraph -->
<g id="edge5" class="edge">
<title>MutableFaceGraph&#45;&gt;MutableHalfedgeGraph</title>
<path fill="none" stroke="black" d="M176.22,-36.77C175.25,-42.55 174.3,-49.03 173.75,-55 173.04,-62.64 172.67,-70.94 172.48,-78.62"/>
<polygon fill="black" stroke="black" points="172.34,-88.41 167.98,-78.35 172.4,-84.63 172.48,-78.41 172.48,-78.41 172.48,-78.41 172.4,-84.63 176.98,-78.48 172.34,-88.41"/>
<text text-anchor="middle" x="192.88" y="-58.2" font-family="Times,serif" font-size="14.00">refines</text>
</g>
<!-- MutableFaceGraph&#45;&gt;FaceGraph -->
<g id="edge6" class="edge">
<title>MutableFaceGraph&#45;&gt;FaceGraph</title>
<path fill="none" stroke="black" d="M199.45,-36.79C214.53,-49.85 235.43,-67.95 252.23,-82.51"/>
<polygon fill="black" stroke="black" points="259.67,-88.95 249.16,-85.8 256.81,-86.47 252.11,-82.4 252.11,-82.4 252.11,-82.4 256.81,-86.47 255.05,-79 259.67,-88.95"/>
<text text-anchor="middle" x="257.88" y="-58.2" font-family="Times,serif" font-size="14.00">refines</text>
</g>
</g>
</svg>
